<?xml version="1.0" encoding="UTF-8" standalone="no"?>
<svg
   xmlns:dc="http://purl.org/dc/elements/1.1/"
   xmlns:cc="http://creativecommons.org/ns#"
   xmlns:rdf="http://www.w3.org/1999/02/22-rdf-syntax-ns#"
   xmlns:svg="http://www.w3.org/2000/svg"
   xmlns="http://www.w3.org/2000/svg"
   xmlns:sodipodi="http://sodipodi.sourceforge.net/DTD/sodipodi-0.dtd"
   xmlns:inkscape="http://www.inkscape.org/namespaces/inkscape"
   version="1.1"
   width="450"
   height="450"
   viewBox="0 0 72 72"
   id="svg194"
   sodipodi:docname="logo-text.svg"
   inkscape:version="1.0.2 (e86c8708, 2021-01-15)"
   inkscape:export-filename="logo-text.png"
   inkscape:export-xdpi="283.04395"
   inkscape:export-ydpi="283.04395">
  <metadata
     id="metadata198">
    <rdf:RDF>
      <cc:Work
         rdf:about="">
        <dc:format>image/svg+xml</dc:format>
        <dc:type
           rdf:resource="http://purl.org/dc/dcmitype/StillImage" />
        <dc:title></dc:title>
      </cc:Work>
    </rdf:RDF>
  </metadata>
  <sodipodi:namedview
     pagecolor="#ffffff"
     bordercolor="#666666"
     borderopacity="1"
     objecttolerance="10"
     gridtolerance="10"
     guidetolerance="10"
     inkscape:pageopacity="0"
     inkscape:pageshadow="2"
     inkscape:window-width="1792"
     inkscape:window-height="1039"
     id="namedview196"
     showgrid="false"
     inkscape:zoom="1.4807337"
     inkscape:cx="114.27504"
     inkscape:cy="217.05689"
     inkscape:window-x="0"
     inkscape:window-y="25"
     inkscape:window-maximized="0"
     inkscape:current-layer="svg194"
     inkscape:document-rotation="0"
     inkscape:pagecheckerboard="true" />
  <defs
     id="defs146">
    <linearGradient
       x1="13.86825"
       y1="11.67151"
       x2="55.344952"
       y2="57.541691"
       gradientUnits="userSpaceOnUse"
       id="color-1">
      <stop
         offset="0"
         stop-color="#000000"
         stop-opacity="0.24"
         id="stop123" />
      <stop
         offset="1"
         stop-color="#000000"
         stop-opacity="0"
         id="stop125" />
    </linearGradient>
    <filter
       id="dropshadow-base">
      <feColorMatrix
         type="matrix"
         values="0 0 0 0 0  0 0 0 0 0  0 0 0 0 0  0 0 0 .8 0"
         id="feColorMatrix128" />
      <feOffset
         dx="0"
         dy="1"
         id="feOffset130" />
      <feGaussianBlur
         stdDeviation="1"
         id="feGaussianBlur132"
         result="result1" />
      <feComposite
         in="SourceGraphic"
         in2="result1"
         id="feComposite134" />
    </filter>
    <filter
       id="dropshadow-banner"
       x="-0.1"
       y="-0.1"
       width="1.2"
       height="1.3">
      <feColorMatrix
         type="matrix"
         values="0 0 0 0 0  0 0 0 0 0  0 0 0 0 0  0 0 0 .4 0"
         id="feColorMatrix137" />
      <feOffset
         dx="0"
         dy="1"
         id="feOffset139" />
      <feGaussianBlur
         stdDeviation="0.5"
         id="feGaussianBlur141"
         result="result1" />
      <feComposite
         in="SourceGraphic"
         in2="result1"
         id="feComposite143" />
    </filter>
  </defs>
  <g
     fill="none"
     fill-rule="nonzero"
     stroke="none"
     stroke-width="none"
     stroke-linecap="butt"
     stroke-linejoin="miter"
     stroke-miterlimit="10"
     stroke-dasharray="none"
     stroke-dashoffset="0"
     font-family="none"
     font-weight="none"
     font-size="none"
     text-anchor="none"
     style="mix-blend-mode:normal"
     id="g192"
     transform="translate(12,5.2926588)">
    <path
       d="M 2,24 C 2,11.84974 11.84974,2 24,2 36.15026,2 46,11.84974 46,24 46,36.15026 36.15026,46 24,46 11.84974,46 2,36.15026 2,24 Z"
       id="base 1 13"
       fill="#ff3e00"
       stroke-width="1" />
    <path
       d="m 16.31863,23.20967 c -1.13353,-1.13353 -1.70029,-2.51138 -1.70029,-4.13357 0,-2.10743 0.87512,-3.86839 2.62536,-5.28287 1.75024,-1.41448 4.03985,-2.12172 6.8688,-2.12172 3.0147,0 5.42575,0.71081 7.23313,2.13243 0.26756,0.20962 0.51539,0.42849 0.7435,0.65659 L 45.6359,28.0073 C 44.0515,36.6165 37.45509,43.47091 28.98428,45.43297 L 18.81892,35.26761 c -1.54307,-0.71439 -2.75395,-1.68952 -3.63264,-2.9254 -0.87869,-1.23588 -1.31804,-2.57178 -1.31804,-4.00769 h 6.02225 l 3.43639,3.43639 c 0.29493,0.03797 0.60682,0.05695 0.93565,0.05695 0.22701,0 0.44366,-0.0081 0.64995,-0.02434 z"
       fill="url(#color-1)"
       stroke-width="1"
       id="path149"
       style="fill:url(#color-1)" />
    <path
       d="m 27.94876,29.32037 c 0,-0.77868 -0.3822,-1.38948 -1.14659,-1.83239 -0.77153,-0.45006 -2.00742,-0.85012 -3.70765,-1.20016 -5.65078,-1.18588 -8.47617,-3.58978 -8.47617,-7.21171 0,-2.10743 0.87512,-3.86839 2.62536,-5.28287 1.75024,-1.41448 4.03984,-2.12172 6.8688,-2.12172 3.0147,0 5.42575,0.71081 7.23314,2.13244 1.81454,1.42163 2.7218,3.26831 2.7218,5.54005 H 27.713 c 0,-0.90727 -0.2929,-1.65737 -0.87869,-2.25031 -0.5858,-0.60008 -1.50378,-0.90012 -2.75395,-0.90012 -1.06443,0 -1.88955,0.24289 -2.47534,0.72867 -0.58579,0.48578 -0.87869,1.10015 -0.87869,1.84311 0,0.70724 0.33219,1.27517 0.99656,1.7038 0.66438,0.43577 1.78953,0.81083 3.37546,1.12515 1.57879,0.31433 2.91111,0.66795 3.99698,1.06086 3.35761,1.23588 5.03641,3.36832 5.03641,6.39731 0,2.17173 -0.93227,3.92554 -2.79681,5.26144 -1.8574,1.34304 -4.25773,2.01456 -7.20099,2.01456 -1.99313,0 -3.7648,-0.35362 -5.31502,-1.06086 -1.54307,-0.71438 -2.75395,-1.68952 -3.63264,-2.9254 -0.87869,-1.23588 -1.31804,-2.57178 -1.31804,-4.00769 h 6.02226 c 0.05715,1.12158 0.47507,1.98599 1.25374,2.59321 0.77153,0.60008 1.81096,0.90012 3.11829,0.90012 1.21445,0 2.13244,-0.23217 2.75395,-0.69652 0.62151,-0.46435 0.93227,-1.068 0.93227,-1.81096 z"
       fill="none"
       stroke-width="0"
       id="path151" />
    <path
       d="m 27.94876,29.32037 c 0,-0.77868 -0.3822,-1.38948 -1.14659,-1.83239 -0.77153,-0.45006 -2.00742,-0.85012 -3.70765,-1.20016 -5.65078,-1.18588 -8.47617,-3.58978 -8.47617,-7.21171 0,-2.10743 0.87512,-3.86839 2.62536,-5.28287 1.75024,-1.41448 4.03984,-2.12172 6.8688,-2.12172 3.0147,0 5.42575,0.71081 7.23314,2.13244 1.81454,1.42163 2.7218,3.26831 2.7218,5.54005 H 27.713 c 0,-0.90727 -0.2929,-1.65737 -0.87869,-2.25031 -0.5858,-0.60008 -1.50378,-0.90012 -2.75395,-0.90012 -1.06443,0 -1.88955,0.24289 -2.47534,0.72867 -0.58579,0.48578 -0.87869,1.10015 -0.87869,1.84311 0,0.70724 0.33219,1.27517 0.99656,1.7038 0.66438,0.43577 1.78953,0.81083 3.37546,1.12515 1.57879,0.31433 2.91111,0.66795 3.99698,1.06086 3.35761,1.23588 5.03641,3.36832 5.03641,6.39731 0,2.17173 -0.93227,3.92554 -2.79681,5.26144 -1.8574,1.34304 -4.25773,2.01456 -7.20099,2.01456 -1.99313,0 -3.7648,-0.35362 -5.31502,-1.06086 -1.54307,-0.71438 -2.75395,-1.68952 -3.63264,-2.9254 -0.87869,-1.23588 -1.31804,-2.57178 -1.31804,-4.00769 h 6.02226 c 0.05715,1.12158 0.47507,1.98599 1.25374,2.59321 0.77153,0.60008 1.81096,0.90012 3.11829,0.90012 1.21445,0 2.13244,-0.23217 2.75395,-0.69652 0.62151,-0.46435 0.93227,-1.068 0.93227,-1.81096 z"
       fill="#ffffff"
       stroke-width="0"
       id="path153" />
    <path
       d="M 2,24 C 2,11.84974 11.84974,2 24,2 36.15026,2 46,11.84974 46,24 46,36.15026 36.15026,46 24,46 11.84974,46 2,36.15026 2,24 Z"
       id="base 1 9 1"
       fill="none"
       stroke-width="1" />
    <path
       d="M 2,24 C 2,11.84974 11.84974,2 24,2 36.15026,2 46,11.84974 46,24 46,36.15026 36.15026,46 24,46 11.84974,46 2,36.15026 2,24 Z"
       id="base 1 5 1"
       fill="none"
       stroke-width="1" />
    <path
       d="M 2,24 C 2,11.84974 11.84974,2 24,2 36.15026,2 46,11.84974 46,24 46,36.15026 36.15026,46 24,46 11.84974,46 2,36.15026 2,24 Z"
       id="base 1 1 1"
       fill="none"
       stroke-width="1" />
    <g
       fill="#000000"
       stroke-width="1"
       font-family="Roboto, sans-serif"
       font-weight="400"
       font-size="14px"
       text-anchor="start"
       id="g158" />
    <rect
       x="2"
       y="2"
       width="44"
       height="22"
       fill="none"
       stroke-width="1"
       id="rect160" />
    <path
       d="M 2,24 V 2 h 44 v 22 z"
       fill="none"
       stroke-width="1"
       id="path162" />
    <path
       d="M 2,24 V 2 h 44 v 22 z"
       fill="none"
       stroke-width="1"
       id="path164" />
    <path
       d="M 2,24 V 2 h 44 v 22 z"
       fill="none"
       stroke-width="1"
       id="path166" />
    <path
       d="M 2,24 V 2 h 44 v 22 z"
       fill="none"
       stroke-width="1"
       id="path168" />
    <g
       id="master-artboard 1 1"
       fill="#000000"
       stroke-width="1"
       font-family="Roboto, sans-serif"
       font-weight="400"
       font-size="14px"
       text-anchor="start" />
    <rect
       x="2"
       y="2"
       width="44"
       height="22"
       fill="none"
       stroke-width="1"
       id="rect171" />
    <path
       d="M 2,24 V 2 h 44 v 22 z"
       fill="none"
       stroke-width="1"
       id="path173" />
    <path
       d="M 2,24 V 2 h 44 v 22 z"
       fill="none"
       stroke-width="1"
       id="path175" />
    <path
       d="M 2,24 V 2 h 44 v 22 z"
       fill="none"
       stroke-width="1"
       id="path177" />
    <path
       d="M 2,24 V 2 h 44 v 22 z"
       fill="none"
       stroke-width="1"
       id="path179" />
    <g
       id="master-artboard 2 1"
       fill="#000000"
       stroke-width="1"
       font-family="Roboto, sans-serif"
       font-weight="400"
       font-size="14px"
       text-anchor="start" />
    <rect
       x="2"
       y="2"
       width="44"
       height="22"
       fill="none"
       stroke-width="1"
       id="rect182" />
    <path
       d="M 2,24 V 2 h 44 v 22 z"
       fill="none"
       stroke-width="1"
       id="path184" />
    <path
       d="M 2,24 V 2 h 44 v 22 z"
       fill="none"
       stroke-width="1"
       id="path186" />
    <path
       d="M 2,24 V 2 h 44 v 22 z"
       fill="none"
       stroke-width="1"
       id="path188" />
    <path
       d="M 2,24 V 2 h 44 v 22 z"
       fill="none"
       stroke-width="1"
       id="path190" />
  </g>
  <text
     xml:space="preserve"
     style="font-style:normal;font-weight:normal;font-size:6.4px;line-height:1.25;font-family:sans-serif;fill:#000000;fill-opacity:1;stroke:none;stroke-width:0.16"
     x="3.1187627"
     y="64.624008"
     id="text252"><tspan
       sodipodi:role="line"
       id="tspan250"
       x="3.1187627"
       y="64.624008"
       style="font-style:normal;font-variant:normal;font-weight:normal;font-stretch:normal;font-size:8.53333px;font-family:Roboto;-inkscape-font-specification:Roboto;stroke-width:0.16">Svelte Material UI</tspan></text>
</svg>
