<svg version="1.1" xmlns="http://www.w3.org/2000/svg" xmlns:xlink="http://www.w3.org/1999/xlink" width="300" height="300" viewBox="0 0 48 48">
  <defs>
    <linearGradient x1="13.86825" y1="11.67151" x2="55.34495" y2="57.54169" gradientUnits="userSpaceOnUse" id="color-1">
      <stop offset="0" stop-color="#000000" stop-opacity="0.24"></stop>
      <stop offset="1" stop-color="#000000" stop-opacity="0"></stop>
    </linearGradient>
    <filter id="dropshadow-base">
      <feColorMatrix type="matrix" values="0 0 0 0 0  0 0 0 0 0  0 0 0 0 0  0 0 0 .8 0"></feColorMatrix>
      <feOffset dx="0" dy="1"></feOffset>
      <feGaussianBlur stdDeviation="1"></feGaussianBlur>
      <feComposite in="SourceGraphic"></feComposite>
    </filter>
    <filter id="dropshadow-banner" x="-10%" y="-10%" width="120%" height="130%">
      <feColorMatrix type="matrix" values="0 0 0 0 0  0 0 0 0 0  0 0 0 0 0  0 0 0 .4 0"></feColorMatrix>
      <feOffset dx="0" dy="1"></feOffset>
      <feGaussianBlur stdDeviation="0.5"></feGaussianBlur>
      <feComposite in="SourceGraphic"></feComposite>
    </filter>
  </defs>
  <g fill="none" fill-rule="nonzero" stroke="none" stroke-width="none" stroke-linecap="butt" stroke-linejoin="miter" stroke-miterlimit="10" stroke-dasharray="" stroke-dashoffset="0" font-family="none" font-weight="none" font-size="none" text-anchor="none" style="mix-blend-mode: normal">
    <path d="M2,24c0,-12.15026 9.84974,-22 22,-22c12.15026,0 22,9.84974 22,22c0,12.15026 -9.84974,22 -22,22c-12.15026,0 -22,-9.84974 -22,-22z" id="base 1 13" fill="#ff3e00" stroke-width="1"></path>
    <path d="M16.31863,23.20967c-1.13353,-1.13353 -1.70029,-2.51138 -1.70029,-4.13357c0,-2.10743 0.87512,-3.86839 2.62536,-5.28287c1.75024,-1.41448 4.03985,-2.12172 6.8688,-2.12172c3.0147,0 5.42575,0.71081 7.23313,2.13243c0.26756,0.20962 0.51539,0.42849 0.7435,0.65659l13.54677,13.54677c-1.5844,8.6092 -8.18081,15.46361 -16.65162,17.42567l-10.16536,-10.16536c-1.54307,-0.71439 -2.75395,-1.68952 -3.63264,-2.9254c-0.87869,-1.23588 -1.31804,-2.57178 -1.31804,-4.00769h6.02225l3.43639,3.43639c0.29493,0.03797 0.60682,0.05695 0.93565,0.05695c0.22701,0 0.44366,-0.00811 0.64995,-0.02434z" fill="url(#color-1)" stroke-width="1"></path>
    <path d="M27.94876,29.32037c0,-0.77868 -0.3822,-1.38948 -1.14659,-1.83239c-0.77153,-0.45006 -2.00742,-0.85012 -3.70765,-1.20016c-5.65078,-1.18588 -8.47617,-3.58978 -8.47617,-7.21171c0,-2.10743 0.87512,-3.86839 2.62536,-5.28287c1.75024,-1.41448 4.03984,-2.12172 6.8688,-2.12172c3.0147,0 5.42575,0.71081 7.23314,2.13244c1.81454,1.42163 2.7218,3.26831 2.7218,5.54005h-6.35445c0,-0.90727 -0.2929,-1.65737 -0.87869,-2.25031c-0.5858,-0.60008 -1.50378,-0.90012 -2.75395,-0.90012c-1.06443,0 -1.88955,0.24289 -2.47534,0.72867c-0.58579,0.48578 -0.87869,1.10015 -0.87869,1.84311c0,0.70724 0.33219,1.27517 0.99656,1.7038c0.66438,0.43577 1.78953,0.81083 3.37546,1.12515c1.57879,0.31433 2.91111,0.66795 3.99698,1.06086c3.35761,1.23588 5.03641,3.36832 5.03641,6.39731c0,2.17173 -0.93227,3.92554 -2.79681,5.26144c-1.8574,1.34304 -4.25773,2.01456 -7.20099,2.01456c-1.99313,0 -3.7648,-0.35362 -5.31502,-1.06086c-1.54307,-0.71438 -2.75395,-1.68952 -3.63264,-2.9254c-0.87869,-1.23588 -1.31804,-2.57178 -1.31804,-4.00769h6.02226c0.05715,1.12158 0.47507,1.98599 1.25374,2.59321c0.77153,0.60008 1.81096,0.90012 3.11829,0.90012c1.21445,0 2.13244,-0.23217 2.75395,-0.69652c0.62151,-0.46435 0.93227,-1.068 0.93227,-1.81096z" fill="none" stroke-width="0"></path>
    <path d="M27.94876,29.32037c0,-0.77868 -0.3822,-1.38948 -1.14659,-1.83239c-0.77153,-0.45006 -2.00742,-0.85012 -3.70765,-1.20016c-5.65078,-1.18588 -8.47617,-3.58978 -8.47617,-7.21171c0,-2.10743 0.87512,-3.86839 2.62536,-5.28287c1.75024,-1.41448 4.03984,-2.12172 6.8688,-2.12172c3.0147,0 5.42575,0.71081 7.23314,2.13244c1.81454,1.42163 2.7218,3.26831 2.7218,5.54005h-6.35445c0,-0.90727 -0.2929,-1.65737 -0.87869,-2.25031c-0.5858,-0.60008 -1.50378,-0.90012 -2.75395,-0.90012c-1.06443,0 -1.88955,0.24289 -2.47534,0.72867c-0.58579,0.48578 -0.87869,1.10015 -0.87869,1.84311c0,0.70724 0.33219,1.27517 0.99656,1.7038c0.66438,0.43577 1.78953,0.81083 3.37546,1.12515c1.57879,0.31433 2.91111,0.66795 3.99698,1.06086c3.35761,1.23588 5.03641,3.36832 5.03641,6.39731c0,2.17173 -0.93227,3.92554 -2.79681,5.26144c-1.8574,1.34304 -4.25773,2.01456 -7.20099,2.01456c-1.99313,0 -3.7648,-0.35362 -5.31502,-1.06086c-1.54307,-0.71438 -2.75395,-1.68952 -3.63264,-2.9254c-0.87869,-1.23588 -1.31804,-2.57178 -1.31804,-4.00769h6.02226c0.05715,1.12158 0.47507,1.98599 1.25374,2.59321c0.77153,0.60008 1.81096,0.90012 3.11829,0.90012c1.21445,0 2.13244,-0.23217 2.75395,-0.69652c0.62151,-0.46435 0.93227,-1.068 0.93227,-1.81096z" fill="#FFFFFF" stroke-width="0"></path>
    <path d="M2,24c0,-12.15026 9.84974,-22 22,-22c12.15026,0 22,9.84974 22,22c0,12.15026 -9.84974,22 -22,22c-12.15026,0 -22,-9.84974 -22,-22z" id="base 1 9 1" fill="none" stroke-width="1"></path>
    <path d="M2,24c0,-12.15026 9.84974,-22 22,-22c12.15026,0 22,9.84974 22,22c0,12.15026 -9.84974,22 -22,22c-12.15026,0 -22,-9.84974 -22,-22z" id="base 1 5 1" fill="none" stroke-width="1"></path>
    <path d="M2,24c0,-12.15026 9.84974,-22 22,-22c12.15026,0 22,9.84974 22,22c0,12.15026 -9.84974,22 -22,22c-12.15026,0 -22,-9.84974 -22,-22z" id="base 1 1 1" fill="none" stroke-width="1"></path>
    <g fill="#000000" stroke-width="1" font-family="Roboto, sans-serif" font-weight="400" font-size="14" text-anchor="start"></g>
    <rect x="2" y="2" width="44" height="22" fill="none" stroke-width="1"></rect>
    <path d="M2,24v-22h44v22z" fill="none" stroke-width="1"></path>
    <path d="M2,24v-22h44v22z" fill="none" stroke-width="1"></path>
    <path d="M2,24v-22h44v22z" fill="none" stroke-width="1"></path>
    <path d="M2,24v-22h44v22z" fill="none" stroke-width="1"></path>
    <g id="master-artboard 1 1" fill="#000000" stroke-width="1" font-family="Roboto, sans-serif" font-weight="400" font-size="14" text-anchor="start"></g>
    <rect x="2" y="2" width="44" height="22" fill="none" stroke-width="1"></rect>
    <path d="M2,24v-22h44v22z" fill="none" stroke-width="1"></path>
    <path d="M2,24v-22h44v22z" fill="none" stroke-width="1"></path>
    <path d="M2,24v-22h44v22z" fill="none" stroke-width="1"></path>
    <path d="M2,24v-22h44v22z" fill="none" stroke-width="1"></path>
    <g id="master-artboard 2 1" fill="#000000" stroke-width="1" font-family="Roboto, sans-serif" font-weight="400" font-size="14" text-anchor="start"></g>
    <rect x="2" y="2" width="44" height="22" fill="none" stroke-width="1"></rect>
    <path d="M2,24v-22h44v22z" fill="none" stroke-width="1"></path>
    <path d="M2,24v-22h44v22z" fill="none" stroke-width="1"></path>
    <path d="M2,24v-22h44v22z" fill="none" stroke-width="1"></path>
    <path d="M2,24v-22h44v22z" fill="none" stroke-width="1"></path>
  </g>
</svg>